<?xml version="1.0" ?><svg viewBox="0 0 64 64" xmlns="http://www.w3.org/2000/svg"><title/><g data-name="Layer 26" id="Layer_26"><path d="M63,46V39a5,5,0,0,0-5-5H52.39L42.26,24.62A10,10,0,0,0,35.48,22h-14a10.06,10.06,0,0,0-8,4l-6,8H7a6,6,0,0,0-6,6v4a6,6,0,0,0,6,6h.08a6.17,6.17,0,0,0,.2,1,10.9,10.9,0,0,0-3,3.08H1v2H63V54H59.68A11.17,11.17,0,0,0,55,50h4A4,4,0,0,0,63,46Zm-2-7v1H59a2,2,0,0,1-2-2V36h1A3,3,0,0,1,61,39ZM39.44,25A3,3,0,0,0,37,28a1,1,0,0,1-2,0,3,3,0,0,0-6,0v1a1,1,0,0,1-2,0,3,3,0,0,0-3-3H23a1,1,0,0,1-1-1V24H35.48A8,8,0,0,1,39.44,25ZM15.1,27.17a8.06,8.06,0,0,1,4.9-3V25a3,3,0,0,0,3,3h1a1,1,0,0,1,1,1,3,3,0,0,0,6,0V28a1,1,0,0,1,2,0,3,3,0,0,0,6,0,1,1,0,0,1,1-1h1.86l7.58,7H10ZM3,44V40a4,4,0,0,1,4-4H55v2a4,4,0,0,0,4,4h2v4a2,2,0,0,1-2,2H54.92a7,7,0,0,0-13.67-.85,11.35,11.35,0,0,0-2.11-.2,11.19,11.19,0,0,0-5.36,1.37,4.86,4.86,0,0,0-3.78.09,10.88,10.88,0,0,0-5.45-1.46,11.14,11.14,0,0,0-3.69.64A7,7,0,0,0,7.08,48H7A4,4,0,0,1,3,44ZM47.1,49.4A1,1,0,0,1,47,49a1,1,0,0,1,2,0v0A10.17,10.17,0,0,0,47.1,49.4ZM51,49a3,3,0,0,0-6-.37,10.77,10.77,0,0,0-1.86-.93A5,5,0,0,1,53,49a2.83,2.83,0,0,1,0,.29A10.87,10.87,0,0,0,51,49ZM9,49a5,5,0,0,1,10-.51,10.35,10.35,0,0,0-1.59,1.15l-.4-.13A4.38,4.38,0,0,0,17,49a3,3,0,0,0-6,0,2.48,2.48,0,0,0,0,.27,10.05,10.05,0,0,0-1.94.65A5.62,5.62,0,0,1,9,49Zm4,0a1,1,0,0,1,2,0s0,0,0,.06a9.76,9.76,0,0,0-1.44-.11C13.37,48.92,13.19,49,13,49Zm44.17,5H6.8a9,9,0,0,1,10.37-2.32,1,1,0,0,0,1.1-.19,8.93,8.93,0,0,1,11.15-1.12,1,1,0,0,0,1,0,2.89,2.89,0,0,1,2.9-.08,1,1,0,0,0,1,0,9.25,9.25,0,0,1,4.79-1.35,9.15,9.15,0,0,1,6.39,2.57,1,1,0,0,0,1.09.2A9.19,9.19,0,0,1,57.17,54Z"/><rect height="2" width="4" x="30" y="37.97"/><path d="M47,22a3,3,0,1,0-3-3A3,3,0,0,0,47,22Zm0-4a1,1,0,1,1-1,1A1,1,0,0,1,47,18Z"/><path d="M29,16a4,4,0,1,0-4-4A4,4,0,0,0,29,16Zm0-6a2,2,0,1,1-2,2A2,2,0,0,1,29,10Z"/><path d="M9,22a3,3,0,1,0-3-3A3,3,0,0,0,9,22Zm0-4a1,1,0,1,1-1,1A1,1,0,0,1,9,18Z"/></g></svg>